<svg xmlns="http://www.w3.org/2000/svg" width="800" height="600" viewBox="0 0 800 600" fill="none">
  <!-- Background Elements -->
  <circle cx="400" cy="300" r="250" fill="#F0F4FF" />
  <circle cx="500" cy="200" r="80" fill="#E2E8FF" />
  <circle cx="300" cy="400" r="60" fill="#D4DDFF" />
  
  <!-- Computer/Device Frame -->
  <rect x="250" y="150" width="300" height="200" rx="10" fill="#4361EE" />
  <rect x="260" y="160" width="280" height="170" rx="5" fill="#FFFFFF" />
  
  <!-- Screen Content -->
  <rect x="280" y="180" width="240" height="20" rx="4" fill="#E0E7FF" />
  <rect x="280" y="210" width="180" height="10" rx="2" fill="#E0E7FF" />
  <rect x="280" y="230" width="210" height="10" rx="2" fill="#E0E7FF" />
  <rect x="280" y="250" width="160" height="10" rx="2" fill="#E0E7FF" />
  
  <!-- Code Elements -->
  <rect x="280" y="280" width="120" height="30" rx="4" fill="#4CC9F0" />
  <rect x="410" y="280" width="80" height="30" rx="4" fill="#4361EE" />
  
  <!-- Stand/Base -->
  <path d="M380 350 L350 400 L450 400 L420 350 Z" fill="#3A0CA3" />
  <rect x="320" y="400" width="160" height="10" rx="5" fill="#3A0CA3" />
  
  <!-- Floating Elements -->
  <circle cx="200" cy="200" r="15" fill="#4CC9F0" opacity="0.7" />
  <circle cx="600" cy="250" r="20" fill="#4361EE" opacity="0.7" />
  <circle cx="550" cy="400" r="12" fill="#3A0CA3" opacity="0.7" />
  <circle cx="180" cy="350" r="10" fill="#4CC9F0" opacity="0.7" />
  
  <!-- Abstract Code Lines -->
  <line x1="150" y1="150" x2="200" y2="150" stroke="#4361EE" stroke-width="3" />
  <line x1="150" y1="160" x2="190" y2="160" stroke="#4361EE" stroke-width="3" />
  <line x1="150" y1="170" x2="180" y2="170" stroke="#4361EE" stroke-width="3" />
  
  <line x1="600" y1="300" x2="650" y2="300" stroke="#4361EE" stroke-width="3" />
  <line x1="600" y1="310" x2="640" y2="310" stroke="#4361EE" stroke-width="3" />
  <line x1="600" y1="320" x2="630" y2="320" stroke="#4361EE" stroke-width="3" />
</svg>
